<svg xmlns="http://www.w3.org/2000/svg" width="1200" height="1320" viewBox="0 0 1200 1320"><title>Releaf Reset — six original visual directions for owner review</title><desc>Three botanical lungs proposals and three Grounding proposals. Static design candidates, not implemented or approved.</desc><defs><linearGradient id="leaf" x2="0.7" y2="1"><stop stop-color="#9CB8A3"/><stop offset="1" stop-color="#29362F"/></linearGradient></defs><rect width="1200" height="1320" fill="#09100D"/><g font-family="Segoe UI, sans-serif" fill="#F3EFE4"><text x="42" y="52" font-size="28">Releaf / Reset — visual direction review</text><text x="42" y="83" font-size="16" fill="#ACB7AF">Original vector studies • no audio • no runtime changes • awaiting owner selection</text><g transform="translate(30 112)"><rect width="370" height="554" rx="24" fill="#121C17" stroke="#29362F"/><text x="22" y="38" font-size="20">L1 / Botanical veins</text><text x="22" y="64" font-size="14" fill="#ACB7AF">Leaf structure, gentle volume</text><g transform="translate(185 222)"><g transform="scale(1 1)"><path d="M -12,-82 C -65,-85 -104,-29 -98,39 C -94,92 -38,103 -16,64 C -8,35 -10,-29 -12,-82 Z" fill="url(#leaf)" stroke="#9CB8A3" stroke-width="2.5"/><path d="M -20,-62 Q -64,7 -58,76 M -32,-40 L -60,-43 M -42,-15 L -81,-14 M -50,14 L -88,22 M -56,43 L -82,58" fill="none" stroke="#F3EFE4" opacity=".55" stroke-width="1.5"/></g><g transform="scale(-1 1)"><path d="M -12,-82 C -65,-85 -104,-29 -98,39 C -94,92 -38,103 -16,64 C -8,35 -10,-29 -12,-82 Z" fill="url(#leaf)" stroke="#9CB8A3" stroke-width="2.5"/><path d="M -20,-62 Q -64,7 -58,76 M -32,-40 L -60,-43 M -42,-15 L -81,-14 M -50,14 L -88,22 M -56,43 L -82,58" fill="none" stroke="#F3EFE4" opacity=".55" stroke-width="1.5"/></g><path d="M 0,-104 L 0,-63 M 0,-63 L -19,-39 M 0,-63 L 19,-39" fill="none" stroke="#9CB8A3" stroke-width="3" stroke-linecap="round"/></g><text x="185" y="370" text-anchor="middle" font-size="23">Breathe in</text><text x="185" y="400" text-anchor="middle" font-size="14" fill="#ACB7AF">3 seconds remaining</text><rect x="32" y="427" width="306" height="48" rx="24" fill="#9CB8A3"/><text x="185" y="455" text-anchor="middle" fill="#09100D" font-size="16">Pause</text><text x="185" y="494" text-anchor="middle" font-size="14" fill="#ACB7AF">Exit session</text><text x="22" y="530" font-size="13" fill="#ACB7AF">Recommended: recognisable, organic</text></g><g transform="translate(420 112)"><rect width="370" height="554" rx="24" fill="#121C17" stroke="#29362F"/><text x="22" y="38" font-size="20">L2 / Layered canopy</text><text x="22" y="64" font-size="14" fill="#ACB7AF">Soft nested contours</text><g transform="translate(185 222)"><g transform="scale(1 1)"><path d="M -12,-82 C -65,-85 -104,-29 -98,39 C -94,92 -38,103 -16,64 C -8,35 -10,-29 -12,-82 Z" fill="#18231D" stroke="#9CB8A3" stroke-width="2.5"/><path d="M -12,-82 C -65,-85 -104,-29 -98,39 C -94,92 -38,103 -16,64 C -8,35 -10,-29 -12,-82 Z" transform="scale(0.8)" fill="none" stroke="#9CB8A3" opacity=".65" stroke-width="2"/><path d="M -12,-82 C -65,-85 -104,-29 -98,39 C -94,92 -38,103 -16,64 C -8,35 -10,-29 -12,-82 Z" transform="scale(0.6)" fill="none" stroke="#9CB8A3" opacity=".65" stroke-width="2"/><path d="M -12,-82 C -65,-85 -104,-29 -98,39 C -94,92 -38,103 -16,64 C -8,35 -10,-29 -12,-82 Z" transform="scale(0.4)" fill="none" stroke="#9CB8A3" opacity=".65" stroke-width="2"/></g><g transform="scale(-1 1)"><path d="M -12,-82 C -65,-85 -104,-29 -98,39 C -94,92 -38,103 -16,64 C -8,35 -10,-29 -12,-82 Z" fill="#18231D" stroke="#9CB8A3" stroke-width="2.5"/><path d="M -12,-82 C -65,-85 -104,-29 -98,39 C -94,92 -38,103 -16,64 C -8,35 -10,-29 -12,-82 Z" transform="scale(0.8)" fill="none" stroke="#9CB8A3" opacity=".65" stroke-width="2"/><path d="M -12,-82 C -65,-85 -104,-29 -98,39 C -94,92 -38,103 -16,64 C -8,35 -10,-29 -12,-82 Z" transform="scale(0.6)" fill="none" stroke="#9CB8A3" opacity=".65" stroke-width="2"/><path d="M -12,-82 C -65,-85 -104,-29 -98,39 C -94,92 -38,103 -16,64 C -8,35 -10,-29 -12,-82 Z" transform="scale(0.4)" fill="none" stroke="#9CB8A3" opacity=".65" stroke-width="2"/></g><path d="M 0,-104 L 0,-63 M 0,-63 L -19,-39 M 0,-63 L 19,-39" fill="none" stroke="#9CB8A3" stroke-width="3" stroke-linecap="round"/></g><text x="185" y="370" text-anchor="middle" font-size="23">Breathe in</text><text x="185" y="400" text-anchor="middle" font-size="14" fill="#ACB7AF">3 seconds remaining</text><rect x="32" y="427" width="306" height="48" rx="24" fill="#9CB8A3"/><text x="185" y="455" text-anchor="middle" fill="#09100D" font-size="16">Pause</text><text x="185" y="494" text-anchor="middle" font-size="14" fill="#ACB7AF">Exit session</text><text x="22" y="530" font-size="13" fill="#ACB7AF">More depth; assess visual busyness</text></g><g transform="translate(810 112)"><rect width="370" height="554" rx="24" fill="#121C17" stroke="#29362F"/><text x="22" y="38" font-size="20">L3 / Quiet outline</text><text x="22" y="64" font-size="14" fill="#ACB7AF">Airy outline, restrained fill</text><g transform="translate(185 222)"><g transform="scale(1 1)"><path d="M -12,-82 C -65,-85 -104,-29 -98,39 C -94,92 -38,103 -16,64 C -8,35 -10,-29 -12,-82 Z" fill="none" stroke="#9CB8A3" stroke-width="2.5"/><path d="M -96,35 Q -52,20 -12,35 L -16,64 C -38,103 -94,92 -96,35" fill="#78A088" opacity=".55"/></g><g transform="scale(-1 1)"><path d="M -12,-82 C -65,-85 -104,-29 -98,39 C -94,92 -38,103 -16,64 C -8,35 -10,-29 -12,-82 Z" fill="none" stroke="#9CB8A3" stroke-width="2.5"/><path d="M -96,35 Q -52,20 -12,35 L -16,64 C -38,103 -94,92 -96,35" fill="#78A088" opacity=".55"/></g><path d="M 0,-104 L 0,-63 M 0,-63 L -19,-39 M 0,-63 L 19,-39" fill="none" stroke="#9CB8A3" stroke-width="3" stroke-linecap="round"/></g><text x="185" y="370" text-anchor="middle" font-size="23">Breathe in</text><text x="185" y="400" text-anchor="middle" font-size="14" fill="#ACB7AF">3 seconds remaining</text><rect x="32" y="427" width="306" height="48" rx="24" fill="#9CB8A3"/><text x="185" y="455" text-anchor="middle" fill="#09100D" font-size="16">Pause</text><text x="185" y="494" text-anchor="middle" font-size="14" fill="#ACB7AF">Exit session</text><text x="22" y="530" font-size="13" fill="#ACB7AF">Lightest; strongest reduced-motion base</text></g><g transform="translate(30 696)"><rect width="370" height="554" rx="24" fill="#121C17" stroke="#29362F"/><text x="22" y="38" font-size="20">G1 / Window of attention</text><text x="22" y="64" font-size="14" fill="#ACB7AF">Notice something in your room</text><g transform="translate(185 222)"><path d="M -102,85 L -102,-54 Q -102,-110 -44,-110 L 44,-110 Q 102,-110 102,-54 L 102,85 Z" fill="#18231D" stroke="#9CB8A3" stroke-width="3"/><path d="M 0,-108 V 85 M -101,-12 H 101" stroke="#78A088" stroke-width="2"/><path d="M -80,65 Q -55,30 -28,63 M 26,48 Q 57,3 79,49" stroke="#D7BA82" fill="none" stroke-width="3"/><circle cx="55" cy="-65" r="17" fill="#9CB8A3"/><path d="M -118,98 H 118" stroke="#9CB8A3" stroke-width="3"/></g><text x="185" y="370" text-anchor="middle" font-size="18">Find one colour around you</text><text x="185" y="400" text-anchor="middle" font-size="14" fill="#ACB7AF">Continue when ready</text><rect x="32" y="427" width="306" height="48" rx="24" fill="#9CB8A3"/><text x="185" y="455" text-anchor="middle" fill="#09100D" font-size="16">Continue</text><text x="185" y="494" text-anchor="middle" font-size="14" fill="#ACB7AF">Skip</text><text x="22" y="530" font-size="13" fill="#ACB7AF">Recommended: points attention outward</text></g><g transform="translate(420 696)"><rect width="370" height="554" rx="24" fill="#121C17" stroke="#29362F"/><text x="22" y="38" font-size="20">G2 / Supported here</text><text x="22" y="64" font-size="14" fill="#ACB7AF">Notice contact with the ground</text><g transform="translate(185 222)"><ellipse cy="81" rx="130" ry="28" fill="#29362F"/><path d="M -37,-99 Q -56,-18 -48,38 Q -95,44 -94,65 Q -64,82 -22,64 L -14,-94 M 37,-99 Q 56,-18 48,38 Q 95,44 94,65 Q 64,82 22,64 L 14,-94" fill="#78A088" stroke="#9CB8A3" stroke-width="3"/><path d="M -107,98 Q 0,121 107,98 M -88,113 Q 0,133 88,113" fill="none" stroke="#9CB8A3" stroke-width="2"/></g><text x="185" y="370" text-anchor="middle" font-size="18">Feel the support beneath your feet</text><text x="185" y="400" text-anchor="middle" font-size="14" fill="#ACB7AF">Continue when ready</text><rect x="32" y="427" width="306" height="48" rx="24" fill="#9CB8A3"/><text x="185" y="455" text-anchor="middle" fill="#09100D" font-size="16">Continue</text><text x="185" y="494" text-anchor="middle" font-size="14" fill="#ACB7AF">Skip</text><text x="22" y="530" font-size="13" fill="#ACB7AF">Best for the body-contact sequence</text></g><g transform="translate(810 696)"><rect width="370" height="554" rx="24" fill="#121C17" stroke="#29362F"/><text x="22" y="38" font-size="20">G3 / Sensory stepping stones</text><text x="22" y="64" font-size="14" fill="#ACB7AF">One noticed item, one clear mark</text><g transform="translate(185 222)"><ellipse cx="-95" cy="30" rx="27" ry="21" fill="#9CB8A3" stroke="#9CB8A3" stroke-width="2"/><text x="-95" y="36" text-anchor="middle" font-size="18" fill="#09100D">✓</text><ellipse cx="-48" cy="-29" rx="27" ry="21" fill="#9CB8A3" stroke="#9CB8A3" stroke-width="2"/><text x="-48" y="-23" text-anchor="middle" font-size="18" fill="#09100D">✓</text><ellipse cx="10" cy="17" rx="27" ry="21" fill="#29362F" stroke="#9CB8A3" stroke-width="2"/><text x="10" y="23" text-anchor="middle" font-size="18" fill="#F3EFE4">3</text><ellipse cx="67" cy="-42" rx="27" ry="21" fill="#29362F" stroke="#9CB8A3" stroke-width="2"/><text x="67" y="-36" text-anchor="middle" font-size="18" fill="#F3EFE4">4</text><ellipse cx="108" cy="26" rx="27" ry="21" fill="#29362F" stroke="#9CB8A3" stroke-width="2"/><text x="108" y="32" text-anchor="middle" font-size="18" fill="#F3EFE4">5</text><text y="97" text-anchor="middle" font-size="16" fill="#ACB7AF">2 of 5 noticed</text></g><text x="185" y="370" text-anchor="middle" font-size="18">Notice one thing you can see</text><text x="185" y="400" text-anchor="middle" font-size="14" fill="#ACB7AF">Continue when ready</text><rect x="32" y="427" width="306" height="48" rx="24" fill="#9CB8A3"/><text x="185" y="455" text-anchor="middle" fill="#09100D" font-size="16">Continue</text><text x="185" y="494" text-anchor="middle" font-size="14" fill="#ACB7AF">Skip</text><text x="22" y="530" font-size="13" fill="#ACB7AF">Best for counted sensory interaction</text></g><text x="42" y="1310" font-size="14" fill="#ACB7AF">Direction studies only. Holds stay still and silent. Final visuals must follow actual session state.</text></g></svg>